<?xml version="1.0" encoding="utf-8"?>
<!-- Generator: Adobe Illustrator 16.0.0, SVG Export Plug-In . SVG Version: 6.00 Build 0)  -->
<!DOCTYPE svg PUBLIC "-//W3C//DTD SVG 1.1//EN" "http://www.w3.org/Graphics/SVG/1.1/DTD/svg11.dtd">
<svg version="1.1" id="Bed_1_" xmlns="http://www.w3.org/2000/svg" xmlns:xlink="http://www.w3.org/1999/xlink" x="0px" y="0px"
	 width="512px" height="512px" viewBox="0 0 512 512" enable-background="new 0 0 512 512" xml:space="preserve">
<circle id="Background" fill="#FEE6A0" cx="256" cy="256" r="256"/>
<path id="Shadow" opacity="0.1" fill="#231F20" d="M511.572,270.663L409.605,168.696L106.104,295.443H68.001l15.385,15.385v35.817
	l165.242,165.242c2.45,0.068,4.905,0.112,7.372,0.112C392.462,512,503.972,405.224,511.572,270.663z"/>
<g id="Bed">
	<rect x="68.001" y="277.432" fill="#A34F48" width="375.998" height="18.012"/>
	<path fill="#A34F48" d="M401.702,165.355H110.297c-6.05,0-10.955,4.847-10.955,10.827v44.004h313.315v-44.004
		C412.657,170.202,407.753,165.355,401.702,165.355z"/>
	<g>
		<g>
			<polygon opacity="0.1" fill="#231F20" points="231.739,191.237 260.688,220.187 231.739,220.187 			"/>
			<polygon opacity="0.1" fill="#231F20" points="355.57,191.237 384.521,220.187 355.57,220.187 			"/>
		</g>
		<g>
			<path fill="#C2B59B" d="M233.926,194.266c-0.75-2.447-3.459-4.45-6.019-4.45h-67.647c-2.56,0-5.268,2.003-6.019,4.45
				l-6.581,21.471c-0.75,2.447,0.73,4.45,3.291,4.45h86.265c2.56,0,4.041-2.003,3.291-4.45L233.926,194.266z"/>
			<path fill="#D9CCA2" d="M233.926,194.266c-0.75-2.447-3.459-4.45-6.019-4.45h-67.647c-2.56,0-5.268,2.003-6.019,4.45
				l-6.581,21.471c-0.75,2.447,0.73,4.45,3.291,4.45h86.265c2.56,0,4.041-2.003,3.291-4.45L233.926,194.266z"/>
			<path fill="#D9CCA2" d="M357.758,194.266c-0.75-2.447-3.459-4.45-6.019-4.45h-67.646c-2.561,0-5.269,2.003-6.019,4.45
				l-6.581,21.471c-0.751,2.447,0.73,4.45,3.29,4.45h86.265c2.561,0,4.041-2.003,3.291-4.45L357.758,194.266z"/>
		</g>
	</g>
	<g>
		<g>
			<polygon fill="#A34F48" points="101.398,346.646 83.386,346.646 83.386,295.443 112.655,295.443 			"/>
			<polygon opacity="0.1" fill="#231F20" points="83.386,295.443 83.386,299.195 111.831,299.195 112.655,295.443 			"/>
		</g>
		<g>
			<polygon fill="#A34F48" points="410.602,346.646 428.614,346.646 428.614,295.443 399.345,295.443 			"/>
			<polygon opacity="0.1" fill="#231F20" points="428.614,295.443 428.614,299.195 400.17,299.195 399.345,295.443 			"/>
		</g>
	</g>
	<path fill="#9B8579" d="M413.448,220.187H98.552c-6.538,0-11.838,5.672-11.838,12.669v31.906v12.67h11.838h314.896h11.838v-12.67
		v-31.906C425.286,225.859,419.986,220.187,413.448,220.187z"/>
	<path fill="#F1F2F2" d="M407.492,226.566H104.508c-6.291,0-11.391,5.04-11.391,11.257v28.351v11.258h11.391h302.984h11.39v-11.258
		v-28.351C418.882,231.606,413.782,226.566,407.492,226.566z"/>
</g>
</svg>
