<?xml version="1.0" encoding="utf-8"?>
<!-- Generator: Adobe Illustrator 16.0.0, SVG Export Plug-In . SVG Version: 6.00 Build 0)  -->
<!DOCTYPE svg PUBLIC "-//W3C//DTD SVG 1.1//EN" "http://www.w3.org/Graphics/SVG/1.1/DTD/svg11.dtd">
<svg version="1.1" id="Cabinet_1_" xmlns="http://www.w3.org/2000/svg" xmlns:xlink="http://www.w3.org/1999/xlink" x="0px" y="0px"
	 width="512px" height="512px" viewBox="0 0 512 512" enable-background="new 0 0 512 512" xml:space="preserve">
<circle id="Background" fill="#FEE6A0" cx="256" cy="256" r="256"/>
<path id="Shadow" opacity="0.1" fill="#231F20" d="M160.811,411.31l100.622,100.622c137.068-2.855,247.644-113.432,250.499-250.499
	L351.189,100.69L160.811,411.31z"/>
<g id="Cabinet">
	<rect x="160.811" y="100.69" fill="#D4905D" width="190.379" height="310.619"/>
	<g>
		<rect x="176.826" y="201.942" opacity="0.2" fill="#231F20" width="158.348" height="88"/>
		<polygon opacity="0.1" fill="#231F20" points="176.826,201.942 176.826,289.942 335.174,201.942 		"/>
	</g>
	<path opacity="0.1" fill="#FFFFFF" d="M249.52,156.898c0.535,0,1.023,0.181,1.422,0.477c-0.437-0.589-1.132-0.977-1.922-0.977
		c-1.325,0-2.399,1.074-2.399,2.399c0,0.79,0.387,1.485,0.977,1.922c-0.295-0.398-0.477-0.887-0.477-1.422
		C247.121,157.973,248.195,156.898,249.52,156.898z"/>
	<g>
		<g>
			<g>
				<rect x="176.826" y="110.71" fill="#D4905D" width="78.136" height="78.61"/>
				<polygon opacity="0.1" fill="#FFFFFF" points="254.962,112.361 254.962,110.71 176.826,110.71 176.826,189.321 178.477,189.321 
					178.477,112.361 				"/>
				<polygon opacity="0.1" fill="#231F20" points="254.962,110.71 254.962,189.321 176.826,189.321 176.826,191.769 
					257.038,191.769 257.038,110.71 				"/>
				<rect x="191.663" y="123.661" fill="#D4905D" width="50.54" height="55.157"/>
				<rect x="191.663" y="123.661" opacity="0.1" fill="#231F20" width="50.54" height="55.157"/>
			</g>
			<circle fill="#414042" cx="249.019" cy="151.24" r="2.399"/>
		</g>
		<g>
			<g>
				<g>
					<rect x="257.038" y="110.71" fill="#D4905D" width="78.136" height="78.61"/>
					<g>
						<polygon opacity="0.1" fill="#231F20" points="335.174,110.71 335.174,189.321 257.038,189.321 257.038,191.769 
							337.25,191.769 337.25,110.71 						"/>
					</g>
				</g>
				<g>
					<rect x="271.875" y="123.661" fill="#D4905D" width="50.539" height="55.157"/>
					<rect x="271.875" y="123.661" opacity="0.1" fill="#231F20" width="50.539" height="55.157"/>
				</g>
				<polygon opacity="0.1" fill="#FFFFFF" points="335.174,112.361 335.174,110.71 257.038,110.71 257.038,189.321 258.688,189.321 
					258.688,112.361 				"/>
			</g>
			<g>
				<circle fill="#414042" cx="265.057" cy="151.24" r="2.399"/>
				<path opacity="0.1" fill="#FFFFFF" d="M265.564,149.341c0.534,0,1.023,0.181,1.422,0.476c-0.437-0.589-1.132-0.976-1.922-0.976
					c-1.325,0-2.398,1.074-2.398,2.398c0,0.79,0.387,1.485,0.977,1.922c-0.296-0.399-0.477-0.888-0.477-1.422
					C263.166,150.415,264.239,149.341,265.564,149.341z"/>
			</g>
		</g>
	</g>
	<g>
		<g>
			<g>
				<rect x="176.826" y="321" fill="#D4905D" width="78.136" height="78.61"/>
				<polygon opacity="0.1" fill="#FFFFFF" points="254.962,322.65 254.962,321 176.826,321 176.826,399.61 178.477,399.61 
					178.477,322.65 				"/>
				<polygon opacity="0.1" fill="#231F20" points="254.962,321 254.962,399.61 176.826,399.61 176.826,402.059 257.038,402.059 
					257.038,321 				"/>
				<rect x="191.663" y="333.95" fill="#D4905D" width="50.54" height="55.157"/>
				<rect x="191.663" y="333.95" opacity="0.1" fill="#231F20" width="50.54" height="55.157"/>
			</g>
			<circle fill="#414042" cx="249.019" cy="361.529" r="2.399"/>
		</g>
		<g>
			<g>
				<g>
					<rect x="257.038" y="321" fill="#D4905D" width="78.136" height="78.61"/>
					<g>
						<polygon opacity="0.1" fill="#231F20" points="335.174,321 335.174,399.61 257.038,399.61 257.038,402.059 337.25,402.059 
							337.25,321 						"/>
					</g>
				</g>
				<g>
					<rect x="271.875" y="333.95" fill="#D4905D" width="50.539" height="55.157"/>
					<rect x="271.875" y="333.95" opacity="0.1" fill="#231F20" width="50.539" height="55.157"/>
				</g>
				<polygon opacity="0.1" fill="#FFFFFF" points="335.174,322.65 335.174,321 257.038,321 257.038,399.61 258.688,399.61 
					258.688,322.65 				"/>
			</g>
			<g>
				<circle fill="#414042" cx="265.057" cy="361.529" r="2.399"/>
				<path opacity="0.1" fill="#FFFFFF" d="M265.564,359.631c0.534,0,1.023,0.181,1.422,0.477c-0.437-0.59-1.132-0.977-1.922-0.977
					c-1.325,0-2.398,1.073-2.398,2.398c0,0.79,0.387,1.485,0.977,1.922c-0.296-0.398-0.477-0.888-0.477-1.422
					C263.166,360.704,264.239,359.631,265.564,359.631z"/>
			</g>
		</g>
	</g>
	<g>
		<g>
			<rect x="176.826" y="297" fill="#D4905D" width="158.348" height="16.486"/>
			<polygon opacity="0.1" fill="#FFFFFF" points="335.098,299.346 335.098,297 176.826,297 176.826,313.486 179.126,313.486 
				179.126,299.346 			"/>
			<polygon opacity="0.1" fill="#231F20" points="335.174,297 335.174,313.486 176.826,313.486 176.826,316 337.25,316 337.25,297 
							"/>
		</g>
		<path fill="#414042" d="M263.52,305.243c0,0.623-0.506,1.128-1.129,1.128h-12.781c-0.623,0-1.128-0.505-1.128-1.128l0,0
			c0-0.623,0.505-1.128,1.128-1.128h12.781C263.014,304.115,263.52,304.62,263.52,305.243L263.52,305.243z"/>
	</g>
</g>
</svg>
