<?xml version="1.0" encoding="utf-8"?>
<!-- Generator: Adobe Illustrator 16.0.0, SVG Export Plug-In . SVG Version: 6.00 Build 0)  -->
<!DOCTYPE svg PUBLIC "-//W3C//DTD SVG 1.1//EN" "http://www.w3.org/Graphics/SVG/1.1/DTD/svg11.dtd">
<svg version="1.1" id="Chair" xmlns="http://www.w3.org/2000/svg" xmlns:xlink="http://www.w3.org/1999/xlink" x="0px" y="0px"
	 width="512px" height="512px" viewBox="0 0 512 512" enable-background="new 0 0 512 512" xml:space="preserve">
<circle id="Background" fill="#FEE6A0" cx="256" cy="256" r="256"/>
<path id="Shadow" opacity="0.1" fill="#231F20" d="M182.26,412.173l98.62,98.62c121.388-11.709,217.984-108.181,229.878-229.515
	L346.34,118.289H215.804v57.898h-47.498l47.498,47.498V261h-21.849v37.559H159.5l34.455,34.455l0,79.264L182.26,412.173z"/>
<g id="Chair_1_">
	<polygon opacity="0.1" fill="#231F20" points="293.156,276.876 306.22,276.876 298.781,158.308 285.719,158.308 	"/>
	<g>
		<g>
			<polygon fill="#A34F48" points="211.303,390.022 208.747,392.352 198.24,392.352 212.909,158.308 225.972,158.308 			"/>
			<g>
				<polygon opacity="0.1" fill="#231F20" points="225.972,158.308 212.91,158.308 205.636,273.194 218.699,273.194 				"/>
				<polygon opacity="0.3" fill="#231F20" points="205.636,273.194 198.24,392.352 208.747,392.352 211.303,390.022 
					218.699,273.194 				"/>
			</g>
			<polygon opacity="0.2" fill="#231F20" points="223.416,158.308 208.747,392.352 211.303,390.022 225.972,158.308 			"/>
			<polygon opacity="0.2" fill="#231F20" points="212.909,158.308 211.488,183.222 224.551,183.222 225.972,158.308 			"/>
		</g>
		<g>
			<polygon fill="#A34F48" points="300.697,390.022 303.253,392.352 313.76,392.352 299.091,158.308 286.027,158.308 			"/>
			<g>
				<polygon opacity="0.1" fill="#231F20" points="286.027,158.308 299.091,158.308 306.363,273.194 293.301,273.194 				"/>
				<polygon opacity="0.3" fill="#231F20" points="306.363,273.194 313.76,392.352 303.253,392.352 300.697,390.022 
					293.301,273.194 				"/>
			</g>
			<polygon opacity="0.2" fill="#231F20" points="288.584,158.308 303.253,392.352 300.697,390.022 286.027,158.308 			"/>
			<polygon opacity="0.2" fill="#231F20" points="299.091,158.308 300.512,183.222 287.448,183.222 286.027,158.308 			"/>
		</g>
	</g>
	<g>
		<path fill="#A34F48" d="M351.635,286.381H160.366h-3.206v8.248h0.024c0.305,3.354,3.563,5.685,8.766,5.685h180.098
			c5.203,0,8.462-2.331,8.767-5.685h0.024v-8.248H351.635z"/>
		<g>
			<path opacity="0.2" fill="#231F20" d="M351.635,286.381H160.366h-3.206v8.248h0.024c0.305,3.354,3.563,5.685,8.766,5.685h180.098
				c5.203,0,8.462-2.331,8.767-5.685h0.024v-8.248H351.635z"/>
			<path fill="#A34F48" d="M353.779,282.688c2.968,5.483-0.511,9.97-7.73,9.97H165.951c-7.219,0-10.698-4.486-7.73-9.97l13.09-21.1
				c2.967-5.483,8.712-5.308,15.931-5.308h137.516c7.22,0,13.039-0.175,16.007,5.308L353.779,282.688z"/>
		</g>
	</g>
	<g>
		<g>
			<g>
				<polygon fill="#A34F48" points="196.801,409.331 193.955,412.277 182.26,412.277 190.539,300.313 205.081,300.313 				"/>
				<polygon opacity="0.1" fill="#231F20" points="196.801,409.331 193.955,412.277 182.26,412.277 190.539,300.313 
					205.081,300.313 				"/>
				<polygon opacity="0.1" fill="#231F20" points="202.235,300.313 193.956,412.277 196.801,409.331 205.081,300.313 				"/>
			</g>
			<g>
				<polygon fill="#A34F48" points="315.199,409.331 318.044,412.277 329.74,412.277 321.461,300.313 306.919,300.313 				"/>
				<polygon opacity="0.1" fill="#231F20" points="315.199,409.331 318.044,412.277 329.74,412.277 321.461,300.313 
					306.919,300.313 				"/>
				<polygon opacity="0.1" fill="#231F20" points="306.919,300.313 315.199,409.331 318.045,412.277 309.765,300.313 				"/>
			</g>
		</g>
		<g>
			<polygon opacity="0.2" fill="#231F20" points="190.539,300.313 190.267,303.996 204.801,303.996 205.081,300.313 			"/>
			<polygon opacity="0.2" fill="#231F20" points="321.461,300.313 306.919,300.313 307.199,303.996 321.733,303.996 			"/>
		</g>
	</g>
	<path fill="#A34F48" d="M348.183,123.984c0-0.005,0.001-0.01,0.001-0.015c0-2.618-1.151-5.153-3.297-7.565
		c-0.922-1.171-1.989-2.161-3.165-2.928c-13.915-10.86-44.896-18.563-85.722-18.563c-40.827,0-71.807,7.702-85.722,18.563
		c-1.176,0.767-2.243,1.756-3.164,2.927c-2.146,2.413-3.297,4.948-3.297,7.566c0,0.005,0,0.01,0,0.015l-0.289,42.997
		c0,8.566,5.641,15.575,12.536,15.575h159.871c6.895,0,12.536-7.008,12.536-15.575L348.183,123.984z"/>
</g>
</svg>
