<?xml version="1.0" encoding="utf-8"?>
<!-- Generator: Adobe Illustrator 16.0.0, SVG Export Plug-In . SVG Version: 6.00 Build 0)  -->
<!DOCTYPE svg PUBLIC "-//W3C//DTD SVG 1.1//EN" "http://www.w3.org/Graphics/SVG/1.1/DTD/svg11.dtd">
<svg version="1.1" id="Cupboard_1_" xmlns="http://www.w3.org/2000/svg" xmlns:xlink="http://www.w3.org/1999/xlink" x="0px"
	 y="0px" width="512px" height="512px" viewBox="0 0 512 512" enable-background="new 0 0 512 512" xml:space="preserve">
<circle id="Background" fill="#FEE6A0" cx="256" cy="256" r="256"/>
<path id="Shadow" opacity="0.1" fill="#231F20" d="M141.455,411.191L241.87,511.606C246.549,511.86,251.258,512,256,512
	c141.385,0,256-114.615,256-256c0-4.742-0.14-9.452-0.394-14.13L370.545,100.809L141.455,411.191z"/>
<g id="Cupboard">
	<rect x="141.455" y="100.809" fill="#BE323E" width="229.09" height="310.383"/>
	<g>
		<g>
			<polygon opacity="0.2" points="248.767,365.484 248.767,396.098 159.75,396.098 159.75,398.282 251.25,398.282 251.25,365.484 
							"/>
			<rect x="159.775" y="365.512" fill="#F3BF48" width="88.992" height="30.593"/>
			<path fill="#594A42" d="M214.949,381.677c0,0.48-0.487,0.869-1.087,0.869h-19.181c-0.601,0-1.088-0.389-1.088-0.869l0,0
				c0-0.479,0.487-0.868,1.088-0.868h19.181C214.462,380.809,214.949,381.197,214.949,381.677L214.949,381.677z"/>
			<polygon opacity="0.2" fill="#FFFFFF" points="248.767,367.716 248.767,365.512 159.775,365.512 159.775,396.104 
				162.283,396.104 162.283,367.716 			"/>
		</g>
		<g>
			<polygon opacity="0.2" points="350.767,365.484 350.767,396.098 261.75,396.098 261.75,398.282 353.25,398.282 353.25,365.484 
							"/>
			<rect x="261.775" y="365.512" fill="#F3BF48" width="88.991" height="30.593"/>
			<path fill="#594A42" d="M316.949,381.677c0,0.48-0.487,0.869-1.088,0.869h-19.181c-0.601,0-1.088-0.389-1.088-0.869l0,0
				c0-0.479,0.487-0.868,1.088-0.868h19.181C316.462,380.809,316.949,381.197,316.949,381.677L316.949,381.677z"/>
			<polygon opacity="0.2" fill="#FFFFFF" points="350.767,367.716 350.767,365.512 261.775,365.512 261.775,396.104 
				264.282,396.104 264.282,367.716 			"/>
		</g>
	</g>
	<g>
		<g>
			<rect x="158.021" y="117.188" fill="#F3BF48" width="92.5" height="234.333"/>
			<polygon opacity="0.2" fill="#FFFFFF" points="250.521,119.982 250.521,117.188 158.021,117.188 158.021,351.521 
				160.814,351.521 160.814,119.982 			"/>
			<polygon opacity="0.2" points="250.521,117.188 250.521,351.521 158.021,351.521 158.021,354.315 253.314,354.315 
				253.314,117.188 			"/>
			<path fill="#594A42" d="M238.185,238.188c-1.534,0-2.778-0.175-2.778-0.391v-6.885c0-0.216,1.244-0.391,2.778-0.391l0,0
				c1.534,0,2.778,0.175,2.778,0.391v6.885C240.962,238.013,239.719,238.188,238.185,238.188L238.185,238.188z"/>
		</g>
		<g>
			<rect x="260.021" y="117.188" fill="#F3BF48" width="92.499" height="234.333"/>
			<polygon opacity="0.2" fill="#FFFFFF" points="352.521,119.982 352.521,117.188 260.021,117.188 260.021,351.521 
				262.814,351.521 262.814,119.982 			"/>
			<polygon opacity="0.2" points="352.521,117.188 352.521,351.521 260.021,351.521 260.021,354.315 355.314,354.315 
				355.314,117.188 			"/>
			<path fill="#594A42" d="M273.815,238.188c-1.534,0-2.778-0.175-2.778-0.391v-6.885c0-0.216,1.244-0.391,2.778-0.391l0,0
				c1.534,0,2.777,0.175,2.777,0.391v6.885C276.593,238.013,275.35,238.188,273.815,238.188L273.815,238.188z"/>
		</g>
	</g>
</g>
</svg>
