<?xml version="1.0" encoding="utf-8"?>
<!-- Generator: Adobe Illustrator 16.0.0, SVG Export Plug-In . SVG Version: 6.00 Build 0)  -->
<!DOCTYPE svg PUBLIC "-//W3C//DTD SVG 1.1//EN" "http://www.w3.org/Graphics/SVG/1.1/DTD/svg11.dtd">
<svg version="1.1" id="Door" xmlns="http://www.w3.org/2000/svg" xmlns:xlink="http://www.w3.org/1999/xlink" x="0px" y="0px"
	 width="512px" height="512px" viewBox="0 0 512 512" enable-background="new 0 0 512 512" xml:space="preserve">
<circle id="Background" fill="#FEE6A0" cx="256" cy="256" r="256"/>
<path id="Shadow" opacity="0.1" fill="#231F20" d="M159.622,411.31l100.636,100.637c138.001-2.253,249.436-113.688,251.688-251.688
	L352.379,100.69L159.622,411.31z"/>
<g id="Door_1_">
	<g>
		<rect x="159.622" y="100.69" fill="#D4905D" width="192.757" height="310.619"/>
		<rect x="170.314" y="114.323" opacity="0.1" fill="#231F20" width="171.371" height="283.355"/>
		<polygon opacity="0.1" fill="#231F20" points="341.686,120.468 341.686,114.323 170.314,114.323 170.314,397.678 177.824,397.678 
			177.824,120.468 		"/>
	</g>
	<g>
		<g>
			<rect x="187.58" y="134.708" fill="#D4905D" width="63.903" height="107.058"/>
			<g>
				<polygon opacity="0.2" fill="#FFFFFF" points="251.483,138.042 251.483,134.708 187.58,134.708 187.58,241.767 190.914,241.767 
					190.914,138.042 				"/>
				<polygon opacity="0.1" fill="#231F20" points="251.483,134.708 251.483,241.767 187.58,241.767 187.58,245.101 254.817,245.101 
					254.817,134.708 				"/>
			</g>
		</g>
		<g>
			<rect x="187.58" y="270.233" fill="#D4905D" width="63.903" height="107.058"/>
			<g>
				<polygon opacity="0.2" fill="#FFFFFF" points="251.483,273.567 251.483,270.233 187.58,270.233 187.58,377.291 190.914,377.291 
					190.914,273.567 				"/>
				<polygon opacity="0.1" fill="#231F20" points="251.483,270.233 251.483,377.291 187.58,377.291 187.58,380.625 254.817,380.625 
					254.817,270.233 				"/>
			</g>
		</g>
		<g>
			<rect x="260.517" y="270.233" fill="#D4905D" width="63.904" height="107.058"/>
			<g>
				<polygon opacity="0.2" fill="#FFFFFF" points="324.421,273.567 324.421,270.233 260.517,270.233 260.517,377.291 
					263.851,377.291 263.851,273.567 				"/>
				<polygon opacity="0.1" fill="#231F20" points="324.421,270.233 324.421,377.291 260.517,377.291 260.517,380.625 
					327.755,380.625 327.755,270.233 				"/>
			</g>
		</g>
		<g>
			<rect x="260.517" y="134.708" fill="#D4905D" width="63.904" height="107.058"/>
			<g>
				<polygon opacity="0.2" fill="#FFFFFF" points="324.421,138.042 324.421,134.708 260.517,134.708 260.517,241.767 
					263.851,241.767 263.851,138.042 				"/>
				<polygon opacity="0.1" fill="#231F20" points="324.421,134.708 324.421,241.767 260.517,241.767 260.517,245.101 
					327.755,245.101 327.755,134.708 				"/>
			</g>
		</g>
	</g>
	<path fill="#726658" d="M335.826,261.205c0,1.879-1.136,3.402-2.536,3.402l0,0c-1.401,0-2.537-1.523-2.537-3.402v-10.41
		c0-1.879,1.136-3.402,2.537-3.402l0,0c1.4,0,2.536,1.523,2.536,3.402V261.205z"/>
</g>
</svg>
