<?xml version="1.0" encoding="utf-8"?>
<!-- Generator: Adobe Illustrator 16.0.0, SVG Export Plug-In . SVG Version: 6.00 Build 0)  -->
<!DOCTYPE svg PUBLIC "-//W3C//DTD SVG 1.1//EN" "http://www.w3.org/Graphics/SVG/1.1/DTD/svg11.dtd">
<svg version="1.1" id="Dressing_Table_1_" xmlns="http://www.w3.org/2000/svg" xmlns:xlink="http://www.w3.org/1999/xlink" x="0px"
	 y="0px" width="512px" height="512px" viewBox="0 0 512 512" enable-background="new 0 0 512 512" xml:space="preserve">
<circle id="Background" fill="#FEE6A0" cx="256" cy="256" r="256"/>
<path id="Shadow" opacity="0.1" fill="#231F20" d="M328.646,117.599h-4.455v28.049l-23.121-23.121l-44.705,57.523l-62.452-62.452
	h-5.28v164.528H85.989v8.105l12.641,12.641v113.92H85.989l78.253,78.252C192.729,505.987,223.66,512,256,512
	c127.227,0,232.759-92.816,252.621-214.427L328.646,117.599z"/>
<g id="Dressing_Table">
	<g>
		<rect x="85.989" y="274.021" fill="#D4905D" width="340.021" height="16.211"/>
		<g>
			<g>
				<g>
					<rect x="90.439" y="290.232" fill="#D4905D" width="105.766" height="110.35"/>
					<g>
						<g>
							<polygon opacity="0.2" points="190.018,295.165 190.018,325.576 95.045,325.576 95.045,327.364 191.6,327.364 191.6,295.165 
															"/>
							<rect x="95.071" y="295.213" fill="#D4905D" width="94.946" height="30.392"/>
							<path fill="#594A42" d="M145.908,311.547c0,0.477-0.154,0.863-0.343,0.863h-6.042c-0.189,0-0.343-0.387-0.343-0.863l0,0
								c0-0.478,0.153-0.863,0.343-0.863h6.042C145.754,310.684,145.908,311.069,145.908,311.547L145.908,311.547z"/>
							<polygon opacity="0.2" fill="#FFFFFF" points="190.018,296.41 190.018,295.213 95.071,295.213 95.071,325.604 96.68,325.604 
								96.68,296.41 							"/>
						</g>
						<g>
							<polygon opacity="0.2" points="190.018,330.185 190.018,360.596 95.045,360.596 95.045,362.384 191.6,362.384 191.6,330.185 
															"/>
							<rect x="95.071" y="330.211" fill="#D4905D" width="94.946" height="30.393"/>
							<path fill="#594A42" d="M145.908,346.271c0,0.477-0.154,0.863-0.343,0.863h-6.042c-0.189,0-0.343-0.387-0.343-0.863l0,0
								c0-0.477,0.153-0.863,0.343-0.863h6.042C145.754,345.407,145.908,345.794,145.908,346.271L145.908,346.271z"/>
							<polygon opacity="0.2" fill="#FFFFFF" points="190.018,331.408 190.018,330.211 95.071,330.211 95.071,360.604 
								96.68,360.604 96.68,331.408 							"/>
						</g>
						<g>
							<polygon opacity="0.2" points="190.018,365.231 190.018,395.643 95.045,395.643 95.045,397.431 191.6,397.431 191.6,365.231 
															"/>
							<rect x="95.071" y="365.258" fill="#D4905D" width="94.946" height="30.392"/>
							<path fill="#594A42" d="M145.908,381.317c0,0.477-0.154,0.863-0.343,0.863h-6.042c-0.189,0-0.343-0.387-0.343-0.863l0,0
								c0-0.477,0.153-0.863,0.343-0.863h6.042C145.754,380.454,145.908,380.841,145.908,381.317L145.908,381.317z"/>
							<polygon opacity="0.2" fill="#FFFFFF" points="190.018,366.455 190.018,365.258 95.071,365.258 95.071,395.649 
								96.68,395.649 96.68,366.455 							"/>
						</g>
					</g>
					<polygon opacity="0.1" fill="#231F20" points="90.439,290.232 196.206,400.582 196.206,290.232 					"/>
				</g>
				<rect x="90.439" y="290.232" opacity="0.1" fill="#231F20" width="105.766" height="3.377"/>
			</g>
			<g>
				<rect x="85.989" y="400.582" fill="#D4905D" width="114.667" height="16.211"/>
				<rect x="85.989" y="400.582" opacity="0.2" fill="#FFFFFF" width="114.667" height="2.136"/>
				<rect x="85.989" y="414.15" opacity="0.1" fill="#231F20" width="114.667" height="2.643"/>
			</g>
		</g>
		<g>
			<g>
				<g>
					<g>
						<rect x="315.795" y="290.232" fill="#D4905D" width="105.766" height="110.35"/>
						<g>
							<g>
								<polygon opacity="0.2" points="415.373,295.165 415.373,325.576 320.4,325.576 320.4,327.364 416.955,327.364 
									416.955,295.165 								"/>
								<rect x="320.427" y="295.213" fill="#D4905D" width="94.946" height="30.392"/>
								<path fill="#594A42" d="M371.263,311.547c0,0.477-0.153,0.863-0.343,0.863h-6.041c-0.189,0-0.343-0.387-0.343-0.863l0,0
									c0-0.478,0.153-0.863,0.343-0.863h6.041C371.109,310.684,371.263,311.069,371.263,311.547L371.263,311.547z"/>
								<polygon opacity="0.2" fill="#FFFFFF" points="415.373,296.41 415.373,295.213 320.427,295.213 320.427,325.604 
									322.035,325.604 322.035,296.41 								"/>
							</g>
							<g>
								<polygon opacity="0.2" points="415.373,330.185 415.373,360.596 320.4,360.596 320.4,362.384 416.955,362.384 
									416.955,330.185 								"/>
								<rect x="320.427" y="330.211" fill="#D4905D" width="94.946" height="30.393"/>
								<path fill="#594A42" d="M371.263,346.271c0,0.477-0.153,0.863-0.343,0.863h-6.041c-0.189,0-0.343-0.387-0.343-0.863l0,0
									c0-0.477,0.153-0.863,0.343-0.863h6.041C371.109,345.407,371.263,345.794,371.263,346.271L371.263,346.271z"/>
								<polygon opacity="0.2" fill="#FFFFFF" points="415.373,331.408 415.373,330.211 320.427,330.211 320.427,360.604 
									322.035,360.604 322.035,331.408 								"/>
							</g>
							<g>
								<polygon opacity="0.2" points="415.373,365.231 415.373,395.643 320.4,395.643 320.4,397.431 416.955,397.431 
									416.955,365.231 								"/>
								<rect x="320.427" y="365.258" fill="#D4905D" width="94.946" height="30.392"/>
								<path fill="#594A42" d="M371.263,381.317c0,0.477-0.153,0.863-0.343,0.863h-6.041c-0.189,0-0.343-0.387-0.343-0.863l0,0
									c0-0.477,0.153-0.863,0.343-0.863h6.041C371.109,380.454,371.263,380.841,371.263,381.317L371.263,381.317z"/>
								<polygon opacity="0.2" fill="#FFFFFF" points="415.373,366.455 415.373,365.258 320.427,365.258 320.427,395.649 
									322.035,395.649 322.035,366.455 								"/>
							</g>
						</g>
						<polygon opacity="0.1" fill="#231F20" points="315.795,290.232 421.561,400.582 421.561,290.232 						"/>
					</g>
				</g>
				<rect x="315.795" y="290.232" opacity="0.1" fill="#231F20" width="105.766" height="3.377"/>
			</g>
			<g>
				<rect x="311.345" y="400.582" fill="#D4905D" width="114.666" height="16.211"/>
				<rect x="311.345" y="414.15" opacity="0.1" fill="#231F20" width="114.666" height="2.643"/>
				<rect x="311.345" y="400.582" opacity="0.2" fill="#FFFFFF" width="114.666" height="2.136"/>
			</g>
		</g>
	</g>
	<g>
		<g>
			<ellipse fill="#D4905D" cx="256" cy="181.293" rx="62.086" ry="86.086"/>
			<ellipse fill="#E0E7F9" cx="256" cy="181.293" rx="50.107" ry="69.476"/>
			<ellipse fill="#E0E7F9" cx="256" cy="181.293" rx="50.107" ry="69.476"/>
			<path opacity="0.1" fill="#231F20" d="M256,111.817c-27.673,0-50.107,31.105-50.107,69.476c0,19.185,5.608,36.554,14.676,49.127
				l70.862-98.253C282.363,119.594,269.837,111.817,256,111.817z"/>
			<path opacity="0.1" fill="#231F20" d="M260.228,116.025c9.945,0,19.214,4.018,27.008,10.946
				c-8.565-9.482-19.422-15.153-31.235-15.153c-27.673,0-50.107,31.105-50.107,69.476c0,24.581,9.207,46.18,23.099,58.53
				c-11.501-12.73-18.872-32.332-18.872-54.322C210.121,147.13,232.554,116.025,260.228,116.025z"/>
		</g>
		<rect x="183.354" y="117.599" fill="#D4905D" width="10.56" height="156.423"/>
		<rect x="318.086" y="117.599" fill="#D4905D" width="10.561" height="156.423"/>
		<rect x="183.354" y="121.419" opacity="0.1" fill="#231F20" width="10.56" height="2.214"/>
		<rect x="183.354" y="266.271" opacity="0.1" fill="#231F20" width="10.56" height="2.214"/>
		<rect x="318.086" y="121.419" opacity="0.1" fill="#231F20" width="10.561" height="2.214"/>
		<rect x="318.086" y="266.271" opacity="0.1" fill="#231F20" width="10.561" height="2.214"/>
	</g>
</g>
</svg>
