<?xml version="1.0" encoding="utf-8"?>
<!-- Generator: Adobe Illustrator 16.0.0, SVG Export Plug-In . SVG Version: 6.00 Build 0)  -->
<!DOCTYPE svg PUBLIC "-//W3C//DTD SVG 1.1//EN" "http://www.w3.org/Graphics/SVG/1.1/DTD/svg11.dtd">
<svg version="1.1" id="Kitchen_Sink_1_" xmlns="http://www.w3.org/2000/svg" xmlns:xlink="http://www.w3.org/1999/xlink" x="0px"
	 y="0px" width="512px" height="512px" viewBox="0 0 512 512" enable-background="new 0 0 512 512" xml:space="preserve">
<circle id="Background" fill="#FEE6A0" cx="256" cy="256" r="256"/>
<path id="Shadow" opacity="0.1" fill="#231F20" d="M505.239,314.654L344.2,153.615h-26.661v54.897H221.82l-30.029-30.029h-2.142
	l-9.407-9.406h-4.705v8.966l-10.235-10.235v40.705h-37.724v163.739l139.496,139.495
	C383.346,506.796,479.534,424.305,505.239,314.654z"/>
<g id="Kitchen_Sink">
	<g>
		<g>
			<path fill="#BCBEC0" d="M169.147,174.724c0-4.498-3.68-8.178-8.178-8.178h-0.273c-4.498,0-8.178,3.68-8.178,8.178v33.524
				c0,4.498,3.681,8.178,8.178,8.178h0.273c4.498,0,8.178-3.68,8.178-8.178V174.724z"/>
			<path fill="#BCBEC0" d="M187.37,176.031h-27.034c-2.609,0-4.743,1.59-4.743,3.533c0,1.943,2.134,3.533,4.743,3.533h23.951v4.774
				h7.826v-8.021C192.112,177.75,189.978,176.031,187.37,176.031z"/>
			<path fill="#A7A9AC" d="M181.094,174.121c0,1.958-1.587,1.91-3.546,1.91h-2.538c-1.958,0-3.545,0.048-3.545-1.91v-2.769
				c0-1.958,1.587-3.545,3.545-3.545h2.538c1.958,0,3.546,1.587,3.546,3.545V174.121z"/>
			<rect x="169.147" y="180.79" opacity="0.1" fill="#231F20" width="15.14" height="2.308"/>
			<path opacity="0.3" fill="#FFFFFF" d="M171.464,171.353v2.769c0,1.552,0.999,1.843,2.388,1.897v-8.001
				C172.466,168.498,171.464,169.802,171.464,171.353z"/>
			<path opacity="0.1" fill="#231F20" d="M178.706,168.017v8.001c1.389-0.054,2.388-0.345,2.388-1.897v-2.769
				C181.094,169.802,180.092,168.498,178.706,168.017z"/>
			<rect x="152.518" y="204.302" opacity="0.1" fill="#231F20" width="16.629" height="3.947"/>
		</g>
		<g>
			<rect x="127.578" y="208.512" fill="#D4905D" width="256.844" height="163.739"/>
			<g>
				<g>
					<g>
						<rect x="147.784" y="222.886" fill="#D4905D" width="105.415" height="130.914"/>
						<polygon opacity="0.1" fill="#FFFFFF" points="253.199,225.634 253.199,222.886 147.784,222.886 147.784,353.8 150.01,353.8 
							150.01,225.634 						"/>
						<polygon opacity="0.1" fill="#231F20" points="253.199,222.886 253.199,353.8 147.784,353.8 147.784,356.527 256,356.527 
							256,222.886 						"/>
						<rect x="167.8" y="244.453" fill="#D4905D" width="68.184" height="91.856"/>
						<rect x="167.8" y="244.453" opacity="0.1" fill="#231F20" width="68.184" height="91.856"/>
					</g>
					<g>
						<ellipse fill="#414042" cx="245.181" cy="290.381" rx="3.236" ry="4"/>
						<path opacity="0.1" fill="#FFFFFF" d="M245.866,287.215c0.721,0,1.381,0.302,1.918,0.795
							c-0.589-0.983-1.527-1.629-2.593-1.629c-1.788,0-3.236,1.791-3.236,4c0,1.318,0.522,2.477,1.317,3.206
							c-0.399-0.665-0.643-1.48-0.643-2.372C242.63,289.006,244.079,287.215,245.866,287.215z"/>
					</g>
				</g>
				<g>
					<g>
						<g>
							<rect x="256" y="222.886" fill="#D4905D" width="105.415" height="130.914"/>
							<g>
								<polygon opacity="0.1" fill="#231F20" points="361.415,222.886 361.415,353.8 256,353.8 256,356.527 364.216,356.527 
									364.216,222.886 								"/>
							</g>
						</g>
						<g>
							<rect x="276.016" y="244.453" fill="#D4905D" width="68.185" height="91.856"/>
							<rect x="276.016" y="244.453" opacity="0.1" fill="#231F20" width="68.185" height="91.856"/>
						</g>
						<polygon opacity="0.1" fill="#FFFFFF" points="361.415,225.634 361.415,222.886 256,222.886 256,353.8 258.227,353.8 
							258.227,225.634 						"/>
					</g>
					<g>
						<ellipse fill="#414042" cx="266.818" cy="290.381" rx="3.236" ry="4"/>
						<path opacity="0.1" fill="#FFFFFF" d="M267.503,287.215c0.721,0,1.381,0.302,1.919,0.795c-0.59-0.983-1.527-1.629-2.594-1.629
							c-1.787,0-3.236,1.791-3.236,4c0,1.318,0.522,2.477,1.317,3.206c-0.398-0.665-0.643-1.48-0.643-2.372
							C264.267,289.006,265.716,287.215,267.503,287.215z"/>
					</g>
				</g>
			</g>
		</g>
	</g>
	<g>
		<g>
			<g>
				<circle fill="#FFFFFF" cx="317.539" cy="172.329" r="32.579"/>
				<circle opacity="0.1" fill="#231F20" cx="317.539" cy="172.329" r="20.022"/>
				<path opacity="0.1" fill="#231F20" d="M320.085,154.851c4.881,0,9.353,1.749,12.826,4.65c-3.673-4.396-9.194-7.196-15.372-7.196
					c-11.058,0-20.022,8.964-20.022,20.023c0,6.177,2.799,11.699,7.196,15.372c-2.902-3.474-4.65-7.946-4.65-12.827
					C300.063,163.815,309.026,154.851,320.085,154.851z"/>
			</g>
			<path fill="#808285" d="M332.691,204.908v-27.202c0-1.11-1.146-2.019-2.545-2.019h-25.214c-1.4,0-2.545,0.908-2.545,2.019v27.202
				h-8.773v4.003h47.851v-4.003H332.691z M304.339,179.421c0-0.967,0.997-1.758,2.217-1.758h21.967c1.22,0,2.218,0.791,2.218,1.758
				v25.486h-26.401V179.421z"/>
		</g>
		<g>
			<polygon fill="#E0E7F9" points="372.848,208.512 354.848,208.512 357.744,184.25 369.951,184.25 			"/>
			<polygon opacity="0.3" fill="#FFFFFF" points="357.744,184.25 354.848,208.512 357.848,208.512 360.744,184.25 			"/>
			<polygon opacity="0.1" fill="#231F20" points="369.848,208.512 366.951,184.25 369.951,184.25 372.848,208.512 			"/>
		</g>
	</g>
</g>
</svg>
