<?xml version="1.0" encoding="utf-8"?>
<!-- Generator: Adobe Illustrator 16.0.0, SVG Export Plug-In . SVG Version: 6.00 Build 0)  -->
<!DOCTYPE svg PUBLIC "-//W3C//DTD SVG 1.1//EN" "http://www.w3.org/Graphics/SVG/1.1/DTD/svg11.dtd">
<svg version="1.1" id="Sofa_1_" xmlns="http://www.w3.org/2000/svg" xmlns:xlink="http://www.w3.org/1999/xlink" x="0px" y="0px"
	 width="512px" height="512px" viewBox="0 0 512 512" enable-background="new 0 0 512 512" xml:space="preserve">
<circle id="Background" fill="#FEE6A0" cx="256" cy="255.28" r="256"/>
<path id="Shadow" opacity="0.1" fill="#231F20" d="M422.47,208.29L54.417,327.899l182.685,182.685
	c6.241,0.455,12.542,0.696,18.898,0.696c127.949,0,233.969-93.869,252.965-216.496L422.47,208.29z"/>
<g id="Sofa">
	<g>
		<g>
			<path fill="#FDA52D" d="M408.22,202.319h-305c-11.046,0-20,8.954-20,20v0.207v0.207v73.869h345v-73.869v-0.207v-0.207
				C428.22,211.273,419.266,202.319,408.22,202.319z"/>
			<path opacity="0.1" fill="#231F20" d="M408.22,202.319h-305c-11.046,0-20,8.954-20,20v0.207v0.207v73.869h345v-73.869v-0.207
				v-0.207C428.22,211.273,419.266,202.319,408.22,202.319z"/>
		</g>
		<g>
			<polygon opacity="0.1" fill="#231F20" points="83.22,252.925 83.22,279.28 109.575,279.28 			"/>
			<rect x="197.22" y="202.319" opacity="0.1" fill="#231F20" width="2" height="77.961"/>
			<rect x="312.22" y="202.319" opacity="0.1" fill="#231F20" width="2" height="77.961"/>
		</g>
	</g>
	<g>
		<path fill="#FDA52D" d="M198.22,306.809c0,5.522-4.471,10-9.985,10h-95.03c-5.515,0-9.985-4.478-9.985-10V280.28
			c0-5.523,4.47-10,9.985-10h95.03c5.515,0,9.985,4.477,9.985,10V306.809z"/>
		<path fill="#FDA52D" d="M313.22,306.809c0,5.522-4.47,10-9.984,10h-95.03c-5.515,0-9.985-4.478-9.985-10V280.28
			c0-5.523,4.47-10,9.985-10h95.03c5.515,0,9.984,4.477,9.984,10V306.809z"/>
		<path fill="#FDA52D" d="M428.22,306.809c0,5.522-4.47,10-9.984,10h-95.03c-5.515,0-9.985-4.478-9.985-10V280.28
			c0-5.523,4.471-10,9.985-10h95.03c5.515,0,9.984,4.477,9.984,10V306.809z"/>
	</g>
	<g>
		<path fill="#414042" d="M442.621,243.524c-7.953,0-14.401,1.448-14.401,9.401v43.676h-345v-43.676
			c0-7.954-6.448-9.401-14.402-9.401s-14.401,1.448-14.401,9.401v74.974H83.22h345h28.804v-74.974
			C457.023,244.972,450.575,243.524,442.621,243.524z"/>
		<path opacity="0.1" fill="#231F20" d="M442.621,243.524c-7.953,0-14.401,1.448-14.401,9.401v43.676h-345v-43.676
			c0-7.954-6.448-9.401-14.402-9.401s-14.401,1.448-14.401,9.401v74.974H83.22h345h28.804v-74.974
			C457.023,244.972,450.575,243.524,442.621,243.524z"/>
	</g>
	<g>
		<circle opacity="0.3" fill="#FFFFFF" cx="140.72" cy="241.53" r="3.75"/>
		<circle opacity="0.3" fill="#FFFFFF" cx="255.72" cy="241.53" r="3.75"/>
		<circle opacity="0.3" fill="#FFFFFF" cx="370.72" cy="241.53" r="3.75"/>
	</g>
	<g>
		<g>
			<polygon fill="#FFFFFF" points="86.97,348.28 79.47,348.28 77.47,327.899 88.97,327.899 			"/>
			<polygon opacity="0.1" fill="#231F20" points="77.47,327.899 77.764,330.899 88.676,330.899 88.97,327.899 			"/>
		</g>
		<g>
			<polygon fill="#FFFFFF" points="431.97,348.28 424.47,348.28 422.47,327.899 433.97,327.899 			"/>
			<polygon opacity="0.1" fill="#231F20" points="433.97,327.899 422.47,327.899 422.765,330.899 433.676,330.899 			"/>
		</g>
	</g>
</g>
</svg>
