<?xml version="1.0" encoding="utf-8"?>
<!-- Generator: Adobe Illustrator 16.0.0, SVG Export Plug-In . SVG Version: 6.00 Build 0)  -->
<!DOCTYPE svg PUBLIC "-//W3C//DTD SVG 1.1//EN" "http://www.w3.org/Graphics/SVG/1.1/DTD/svg11.dtd">
<svg version="1.1" id="Table_1_" xmlns="http://www.w3.org/2000/svg" xmlns:xlink="http://www.w3.org/1999/xlink" x="0px" y="0px"
	 width="512px" height="512px" viewBox="0 0 512 512" enable-background="new 0 0 512 512" xml:space="preserve">
<circle id="Background" fill="#FEE6A0" cx="256" cy="256" r="256"/>
<path id="Shadow" opacity="0.1" fill="#231F20" d="M110.842,346.644l164.625,164.625c130.61-9.821,233.866-117.646,236.469-250.146
	l-92.308-92.307H124.16v53.281H74.218l49.942,49.941v61.289L110.842,346.644z"/>
<g id="Table">
	<polygon opacity="0.3" fill="#231F20" points="135.374,192.85 125.5,316.963 135.47,192.85 	"/>
	<g>
		<path fill="#D4905D" d="M437.059,205.538H74.941h-4.279v11.01h0.033c0.406,4.477,4.756,7.588,11.702,7.588h347.207
			c6.944,0,11.295-3.111,11.701-7.588h0.033v-11.01H437.059z"/>
		<g>
			<path opacity="0.2" fill="#231F20" d="M437.059,205.538H74.941h-4.279v11.01h0.033c0.406,4.477,4.756,7.588,11.702,7.588h347.207
				c6.944,0,11.295-3.111,11.701-7.588h0.033v-11.01H437.059z"/>
			<path fill="#D4905D" d="M439.922,200.609c3.962,7.319-0.682,13.308-10.318,13.308H82.397c-9.637,0-14.28-5.989-10.319-13.308
				l17.473-28.167c3.962-7.319,11.63-7.085,21.267-7.085h290.363c9.637,0,17.405-0.234,21.367,7.085L439.922,200.609z"/>
		</g>
	</g>
	<g>
		<g>
			<g>
				<polygon fill="#D4905D" points="142.978,322.045 139.563,325.619 125.531,325.619 135.465,223.246 152.912,223.246 				"/>
				<polygon opacity="0.3" fill="#231F20" points="142.978,322.045 139.563,325.619 125.531,325.619 135.465,223.246 
					152.912,223.246 				"/>
				<polygon opacity="0.1" fill="#231F20" points="149.498,223.246 139.564,325.619 142.978,322.045 152.912,223.246 				"/>
			</g>
		</g>
		<g>
			<g>
				<polygon fill="#D4905D" points="369.021,322.045 372.436,325.619 386.469,325.619 376.535,223.246 359.088,223.246 				"/>
				<polygon opacity="0.3" fill="#231F20" points="369.021,322.045 372.436,325.619 386.469,325.619 376.535,223.246 
					359.088,223.246 				"/>
				<polygon opacity="0.1" fill="#231F20" points="359.088,223.246 369.021,322.045 372.437,325.619 362.502,223.246 				"/>
			</g>
		</g>
	</g>
	<g>
		<g>
			<g>
				<polygon fill="#D4905D" points="130.254,342.366 126.455,346.644 110.842,346.644 121.895,224.136 141.306,224.136 				"/>
				<polygon opacity="0.1" fill="#231F20" points="130.254,342.366 126.455,346.644 110.842,346.644 121.895,224.136 
					141.306,224.136 				"/>
				<polygon opacity="0.1" fill="#231F20" points="137.507,224.136 126.455,346.644 130.254,342.366 141.306,224.136 				"/>
			</g>
			<polygon opacity="0.2" fill="#231F20" points="121.895,224.136 121.531,229.483 140.933,229.483 141.306,224.136 			"/>
		</g>
		<g>
			<g>
				<polygon fill="#D4905D" points="381.746,342.366 385.544,346.644 401.157,346.644 390.105,224.136 370.693,224.136 				"/>
				<polygon opacity="0.1" fill="#231F20" points="381.746,342.366 385.544,346.644 401.157,346.644 390.105,224.136 
					370.693,224.136 				"/>
				<polygon opacity="0.1" fill="#231F20" points="370.693,224.136 381.746,342.366 385.545,346.644 374.492,224.136 				"/>
			</g>
			<polygon opacity="0.2" fill="#231F20" points="390.105,224.136 370.693,224.136 371.067,229.483 390.469,229.483 			"/>
		</g>
	</g>
</g>
</svg>
